<svg width="27" height="24" viewBox="0 0 27 24" fill="none" xmlns="http://www.w3.org/2000/svg">
<path d="M24 21H3C1.34297 21 0 19.657 0 18V6C0 4.34297 1.34297 3 3 3H24C25.657 3 27 4.34297 27 6V18C27 19.6547 25.6547 21 24 21ZM6 8.4375V6.5625C6 6.25313 5.74687 6 5.4375 6H3.5625C3.25219 6 3 6.25313 3 6.5625V8.4375C3 8.74687 3.25219 9 3.5625 9H5.4375C5.74687 9 6 8.74687 6 8.4375ZM10.5 8.4375V6.5625C10.5 6.25313 10.2469 6 9.9375 6H8.0625C7.75313 6 7.5 6.25313 7.5 6.5625V8.4375C7.5 8.74687 7.75313 9 8.0625 9H9.9375C10.2469 9 10.5 8.74687 10.5 8.4375ZM15 8.4375V6.5625C15 6.25313 14.7469 6 14.4375 6H12.5625C12.2531 6 12 6.25313 12 6.5625V8.4375C12 8.74687 12.2531 9 12.5625 9H14.4375C14.7469 9 15 8.74687 15 8.4375ZM19.5 8.4375V6.5625C19.5 6.25313 19.2469 6 18.9375 6H17.0625C16.7531 6 16.5 6.25313 16.5 6.5625V8.4375C16.5 8.74687 16.7531 9 17.0625 9H18.9375C19.2469 9 19.5 8.74687 19.5 8.4375ZM24 8.4375V6.5625C24 6.25313 23.7469 6 23.4375 6H21.5625C21.2531 6 21 6.25313 21 6.5625V8.4375C21 8.74687 21.2531 9 21.5625 9H23.4375C23.7469 9 24 8.74687 24 8.4375ZM6 12.9375V11.0625C6 10.7531 5.74687 10.5 5.4375 10.5H3.5625C3.25219 10.5 3 10.7531 3 11.0625V12.9375C3 13.2469 3.25219 13.5 3.5625 13.5H5.4375C5.74687 13.5 6 13.2469 6 12.9375ZM10.5 12.9375V11.0625C10.5 10.7531 10.2469 10.5 9.9375 10.5H8.0625C7.75313 10.5 7.5 10.7531 7.5 11.0625V12.9375C7.5 13.2469 7.75313 13.5 8.0625 13.5H9.9375C10.2469 13.5 10.5 13.2469 10.5 12.9375ZM15 12.9375V11.0625C15 10.7531 14.7469 10.5 14.4375 10.5H12.5625C12.2531 10.5 12 10.7531 12 11.0625V12.9375C12 13.2469 12.2531 13.5 12.5625 13.5H14.4375C14.7469 13.5 15 13.2469 15 12.9375ZM19.5 12.9375V11.0625C19.5 10.7531 19.2469 10.5 18.9375 10.5H17.0625C16.7531 10.5 16.5 10.7531 16.5 11.0625V12.9375C16.5 13.2469 16.7531 13.5 17.0625 13.5H18.9375C19.2469 13.5 19.5 13.2469 19.5 12.9375ZM24 12.9375V11.0625C24 10.7531 23.7469 10.5 23.4375 10.5H21.5625C21.2531 10.5 21 10.7531 21 11.0625V12.9375C21 13.2469 21.2531 13.5 21.5625 13.5H23.4375C23.7469 13.5 24 13.2469 24 12.9375ZM6 17.4375V15.5625C6 15.2531 5.74687 15 5.4375 15H3.5625C3.25219 15 3 15.2531 3 15.5625V17.4375C3 17.7469 3.25219 18 3.5625 18H5.4375C5.74687 18 6 17.7469 6 17.4375ZM19.5 17.4375V15.5625C19.5 15.2531 19.2469 15 18.9375 15H8.0625C7.75313 15 7.5 15.2531 7.5 15.5625V17.4375C7.5 17.7469 7.75313 18 8.0625 18H18.9375C19.2469 18 19.5 17.7469 19.5 17.4375ZM24 17.4375V15.5625C24 15.2531 23.7469 15 23.4375 15H21.5625C21.2531 15 21 15.2531 21 15.5625V17.4375C21 17.7469 21.2531 18 21.5625 18H23.4375C23.7469 18 24 17.7469 24 17.4375Z" fill="#444444"/>
</svg>
